# xmcd
# Track frame offsets:
# 183
# 29735
# 44010
# 57528
# 70960
# 81370
# 98023
# 119473
# 135133
# 149900
# 170153
# 192073
# 203270
# 216173
#
# Disc length: 3063 seconds
# Revision: 2
# Processed by: cddbd v1.5PL3 Copyright (c) Steve Scherf et al.
# Submitted via: VisiTrax 2.9.9.202 - For more info visit www.synapsa.com
#
DISCID=d80bf50e
DTITLE=Various Artist - Blues Classics Vol. 1 - Delta Moods
DYEAR=1900
DGENRE=Blues
TTITLE0=John Lee Hooker - Boogie With The Hook
TTITLE1=Muddy Waters - Rock Me
TTITLE2=Koko Taylor - Wang Dang Doodle
TTITLE3=Bo Diddley - I M A Man
TTITLE4=Dale Hawkins - Susie Q
TTITLE5=B. B. King - The Thrill is Gone
TTITLE6=Buddy Guy - Mustang Sally
TTITLE7=John Lee Hooker - I Can t Quit You Baby
TTITLE8=Muddy Waters - Baby Please Don t Go
TTITLE9=Buddy Guy - Damn Right I've Got The Blues
TTITLE10=B. B. King - When Love Comes to Town
TTITLE11=Bo Diddley - Who Do You Love
TTITLE12=Muddy Waters - Got My Mojo Working
TTITLE13=John Lee Hooker - One Bourbon, One Scotch, One Beer
EXTD=
EXTT0=
EXTT1=
EXTT2=
EXTT3=
EXTT4=
EXTT5=
EXTT6=
EXTT7=
EXTT8=
EXTT9=
EXTT10=
EXTT11=
EXTT12=
EXTT13=
PLAYORDER=
